<svg xmlns="http://www.w3.org/2000/svg" viewBox="0 0 396.11 395.75"><path class="cls-1" d="M264.25,0H146.8a65.93,65.93,0,1,0,65.92,65.93A53.33,53.33,0,0,0,172,84.75l-1,1.37A31.53,31.53,0,1,1,146.8,34.4H264.25a97.46,97.46,0,0,1,0,194.91l-23.19.1,13-54.62c2.47-10.15,9-18,18.61-21.68l.94-.17a31.53,31.53,0,1,0-42.21-39.77l-.87,2.77L204.38,229.41l-57.58-.1H115.65a33,33,0,0,0-31.07,21.93l-11.65,48.5a32.57,32.57,0,0,0,37.67-15.26l.92-2.39a33,33,0,0,1,29.57-18.38h55.4l-.18.77-17,74a34.59,34.59,0,0,1-32.48,22.71l-112.22-.5A34.58,34.58,0,0,0,0,395.25H.75l173.55.5a34.6,34.6,0,0,0,33-24.3L232,267.68h0l.43-1.8.51-2.17h31.34A131.86,131.86,0,1,0,264.25,0Z"/></svg>